<svg width="139" height="185" viewBox="0 0 139 185" fill="none" xmlns="http://www.w3.org/2000/svg">
<path d="M28.9583 0C16.1804 0 5.79163 10.3701 5.79163 23.125V161.875C5.79163 174.63 16.1804 185 28.9583 185H110.042C122.819 185 133.208 174.63 133.208 161.875V23.125C133.208 10.3701 122.819 0 110.042 0H28.9583ZM57.9166 156.094H81.0833C84.2687 156.094 86.875 158.695 86.875 161.875C86.875 165.055 84.2687 167.656 81.0833 167.656H57.9166C54.7312 167.656 52.125 165.055 52.125 161.875C52.125 158.695 54.7312 156.094 57.9166 156.094Z" fill="#838181"/>
</svg>
